# xmcd
#
# Track frame offsets:
#	182
#	13930
#	25115
#	40050
#	56537
#	71627
#	90540
#	109725
#	124137
#	136967
#	155240
#
# Disc length: 2323 seconds
#
# Revision: 4
# Processed by: cddbd v1.5.2PL0 Copyright (c) Steve Scherf et al.
# Submitted via: audiograbber 1.83.01
#
DISCID=9309110b
DTITLE=Stuart, Marty - Honky tonkin's what I do best
DYEAR=1996
DGENRE=Country
TTITLE0=Honky tonkin's what I do best (Duet with Travis Tritt)
TTITLE1=Country girls
TTITLE2=Thanks to you
TTITLE3=Shelter from the storm
TTITLE4=Sweet love
TTITLE5=I'll be there for you
TTITLE6=The Mississippi mudcat and sister Sheryl Crow (feat. 'King' Jimmy Marti
TTITLE6=n)
TTITLE7=Rocket ship
TTITLE8=Country
TTITLE9=You can't stop love
TTITLE10=So many people
EXTD=
EXTT0=
EXTT1=
EXTT2=
EXTT3=
EXTT4=
EXTT5=
EXTT6=featuring "King" Jimmy Martin and his country music coon\ndogs and beagle
EXTT6=hounds
EXTT7=
EXTT8=
EXTT9=
EXTT10=
PLAYORDER=
